<?xml version="1.0"?>
<svg width="512" height="512" xmlns="http://www.w3.org/2000/svg" xmlns:svg="http://www.w3.org/2000/svg">
 <g>
  <title>Layer 1</title>
  <path id="svg_1" fill="#E6EAEA" d="m373.401,138.142l-308.722,0c-4.503,0 -8.153,3.649 -8.153,8.153l0,265.24l99.466,99.465l217.41,0c4.503,0 8.153,-3.649 8.153,-8.153l0,-356.552c-0.001,-4.504 -3.651,-8.153 -8.154,-8.153z"/>
  <path id="svg_2" fill="#CDD4D5" d="m64.679,139.142c-4.503,0 -8.153,3.649 -8.153,8.153l0,265.24l99.466,99.465l56.527,0l0,-372.858l-147.84,0z"/>
  <path transform="translate(492,-69) " fill="#9BAAAB" d="m147.839,412.535l-91.312,0l99.465,99.465l0,-91.312c0,-4.503 -3.651,-8.153 -8.153,-8.153z" id="SVGCleanerId_0"/>
  <g id="svg_3">
   <path id="svg_4" fill="#008cff" d="m326.571,220.671l-213.061,0c-4.503,0 -8.153,-3.649 -8.153,-8.153c0,-4.504 3.65,-8.153 8.153,-8.153l213.062,0c4.503,0 8.153,3.649 8.153,8.153c-0.001,4.504 -3.651,8.153 -8.154,8.153z"/>
   <path id="svg_5" fill="#008cff" d="m326.571,290.242l-213.061,0c-4.503,0 -8.153,-3.649 -8.153,-8.153c0,-4.504 3.65,-8.153 8.153,-8.153l213.062,0c4.503,0 8.153,3.649 8.153,8.153c-0.001,4.504 -3.651,8.153 -8.154,8.153z"/>
   <path id="svg_6" fill="#008cff" d="m326.571,359.813l-213.061,0c-4.503,0 -8.153,-3.649 -8.153,-8.153c0,-4.504 3.65,-8.153 8.153,-8.153l213.062,0c4.503,0 8.153,3.649 8.153,8.153c-0.001,4.504 -3.651,8.153 -8.154,8.153z"/>
   <path id="svg_7" fill="#008cff" d="m326.571,429.384l-213.061,0c-4.503,0 -8.153,-3.649 -8.153,-8.153s3.65,-8.153 8.153,-8.153l213.062,0c4.503,0 8.153,3.649 8.153,8.153s-3.651,8.153 -8.154,8.153z"/>
  </g>
  <g id="svg_8">
   <path id="svg_9" fill="#0000bf" d="m112.51,204.365c-4.503,0 -8.153,3.649 -8.153,8.153c0,4.504 3.65,8.153 8.153,8.153l100.009,0l0,-16.306l-100.009,0z"/>
   <path id="svg_10" fill="#0000bf" d="m112.51,273.936c-4.503,0 -8.153,3.649 -8.153,8.153c0,4.504 3.65,8.153 8.153,8.153l100.009,0l0,-16.306l-100.009,0z"/>
   <path id="svg_11" fill="#0000bf" d="m104.357,351.66c0,4.504 3.65,8.153 8.153,8.153l100.009,0l0,-16.306l-100.009,0c-4.503,0 -8.153,3.65 -8.153,8.153z"/>
   <path id="svg_12" fill="#0000bf" d="m104.357,421.231c0,4.504 3.65,8.153 8.153,8.153l100.009,0l0,-16.306l-100.009,0c-4.503,0.001 -8.153,3.65 -8.153,8.153z"/>
  </g>
  <g id="svg_13">
   <path fill="#9BAAAB" d="m147.839,412.535l-91.312,0l99.465,99.465l0,-91.312c0,-4.503 -3.651,-8.153 -8.153,-8.153z" id="SVGCleanerId_0_1_"/>
  </g>
  <path id="svg_14" fill="#008cff" d="m448.321,0l-321.767,0c-4.503,0 -8.153,3.649 -8.153,8.153l0,113.053c0,3.463 2.187,6.546 5.455,7.693c3.267,1.146 6.902,0.103 9.065,-2.6l25.38,-31.726l81.849,0l0,278.828c0,4.504 3.65,8.153 8.153,8.153l78.268,0c4.503,0 8.153,-3.649 8.153,-8.153l0,-278.828l81.849,0l25.38,31.727c2.162,2.702 5.796,3.745 9.065,2.6c3.268,-1.147 5.455,-4.231 5.455,-7.693l0,-113.054c0.001,-4.504 -3.65,-8.153 -8.152,-8.153z"/>
  <path id="svg_15" fill="#0000bf" d="m124.554,0c-4.503,0 -8.153,3.649 -8.153,8.153l0,113.053c0,3.463 2.187,6.546 5.455,7.693c3.267,1.146 6.902,0.103 9.065,-2.6l25.38,-31.726l81.849,0l0,278.828c0,4.504 3.65,8.153 8.153,8.153l35.873,0l0,-381.554l-157.622,0z"/>
  <g id="svg_16">
   <path id="svg_17" fill="#FFFFFF" d="m425.58,46.743l-56.527,0c-4.503,0 -8.153,-3.649 -8.153,-8.153s3.65,-8.153 8.153,-8.153l56.527,0c4.503,0 8.153,3.649 8.153,8.153s-3.651,8.153 -8.153,8.153z"/>
   <path id="svg_18" fill="#FFFFFF" d="m338.616,46.743l-39.134,0c-4.503,0 -8.153,-3.649 -8.153,-8.153s3.65,-8.153 8.153,-8.153l39.134,0c4.503,0 8.153,3.649 8.153,8.153s-3.651,8.153 -8.153,8.153z"/>
  </g>
  <g id="svg_19"/>
  <g id="svg_20"/>
  <g id="svg_21"/>
  <g id="svg_22"/>
  <g id="svg_23"/>
  <g id="svg_24"/>
  <g id="svg_25"/>
  <g id="svg_26"/>
  <g id="svg_27"/>
  <g id="svg_28"/>
  <g id="svg_29"/>
  <g id="svg_30"/>
  <g id="svg_31"/>
  <g id="svg_32"/>
  <g id="svg_33"/>
 </g>
</svg>