<?xml version="1.0"?>
<svg width="57.99999999999999" height="57.99999999999999" xmlns="http://www.w3.org/2000/svg" xmlns:svg="http://www.w3.org/2000/svg">
 <g>
  <title>Layer 1</title>
  <path id="svg_1" fill="#3838d1" d="m46.324,58.150921l-44.759,0c-1.03,0 -1.779,-0.978 -1.51,-1.973l10.166,-27.871c0.184,-0.682 0.803,-1.156 1.51,-1.156l44.759,0c1.03,0 1.51,0.984 1.51,1.973l-10.166,27.871c-0.184,0.682 -0.803,1.156 -1.51,1.156z"/>
  <path id="svg_2" fill="#F4EFDC" d="m10.221,28.156c0.184,-0.682 0.803,-1.156 1.51,-1.156l34.269,0l0,-12l-15,-15l-23,0l0,34.245l2.221,-6.089z"/>
  <g id="svg_3">
   <path id="svg_4" fill="#0000bf" d="m50.268,18l-4.268,0l0,9l6,0l0,-7.268c0,-0.957 -0.776,-1.732 -1.732,-1.732z"/>
   <path id="svg_5" fill="#0000bf" d="m8,11l-6.268,0c-0.956,0 -1.732,0.775 -1.732,1.732l0,42.728c0.069,0.002 0.138,0.006 0.205,0.01l7.795,-21.258l0,-23.212z"/>
  </g>
  <path id="svg_6" fill="#CEC9AE" d="m25,16l-10,0c-0.552,0 -1,-0.447 -1,-1s0.448,-1 1,-1l10,0c0.552,0 1,0.447 1,1s-0.448,1 -1,1z"/>
  <path id="svg_7" fill="#CEC9AE" d="m25,9l-10,0c-0.552,0 -1,-0.447 -1,-1s0.448,-1 1,-1l10,0c0.552,0 1,0.447 1,1s-0.448,1 -1,1z"/>
  <path id="svg_8" fill="#CEC9AE" d="m39,23l-24,0c-0.552,0 -1,-0.447 -1,-1s0.448,-1 1,-1l24,0c0.552,0 1,0.447 1,1s-0.448,1 -1,1z"/>
  <polygon id="svg_9" fill="#D1BF86" points="31,15 46,15 31,0 "/>
  <g id="svg_10"/>
  <g id="svg_11"/>
  <g id="svg_12"/>
  <g id="svg_13"/>
  <g id="svg_14"/>
  <g id="svg_15"/>
  <g id="svg_16"/>
  <g id="svg_17"/>
  <g id="svg_18"/>
  <g id="svg_19"/>
  <g id="svg_20"/>
  <g id="svg_21"/>
  <g id="svg_22"/>
  <g id="svg_23"/>
  <g id="svg_24"/>
 </g>

</svg>