<?xml version="1.0"?>
<svg width="511.999" height="511.999" xmlns="http://www.w3.org/2000/svg" xmlns:svg="http://www.w3.org/2000/svg">
 <g>
  <title>Layer 1</title>
  <path id="svg_1" fill="#f7c096" d="m196.441,294.401l14.473,49.984c-0.202,14.759 -26.541,4.36 -28.744,18.929c-8.994,-5.337 -25.647,-37.988 -26.124,-44.064l40.395,-24.849z"/>
  <g id="svg_2">
   <rect id="svg_3" fill="#FFFFFF" height="51.819" width="51.819" y="122.566" x="154.932"/>
   <rect id="svg_4" fill="#FFFFFF" height="51.819" width="51.819" y="39.477" x="154.932"/>
  </g>
  <path id="svg_5" fill="#f7c096" d="m367.395,276.842c14.831,5.11 23.146,20.847 19.024,35.975l-14.128,51.807c-21.466,0 -46.98,-11.379 -67.433,-30.105l8.324,-56.002l25.766,-11.48l28.447,9.805z"/>
  <path id="svg_6" fill="#0000bf" d="m338.948,282.656l0,35.511c0,0.596 -0.488,1.084 -1.084,1.084l-212.253,0c-0.596,0 -1.084,-0.488 -1.084,-1.084l0,-317.071c0,-0.608 0.488,-1.096 1.084,-1.096l212.254,0c0.596,0 1.084,0.488 1.084,1.096l0,265.943l0,15.617l-0.001,0zm-132.203,-108.271l0,-51.819l-51.819,0l0,51.819l51.819,0zm0,-83.089l0,-51.819l-51.819,0l0,51.819l51.819,0z"/>
  <g id="svg_7">
   <rect id="svg_8" fill="#FFFFFF" height="10.721" width="72.665" y="241.094" x="232.957"/>
   <rect id="svg_9" fill="#FFFFFF" height="10.721" width="72.665" y="210.121" x="232.957"/>
   <rect id="svg_10" fill="#FFFFFF" height="51.819" width="51.819" y="205.059" x="154.932"/>
  </g>
  <path id="svg_11" fill="#ffd4aa" d="m348.228,291.149l-9.28,-8.493l0,35.511c0,0.596 -0.488,1.084 -1.084,1.084l-71.498,0l-1.358,0.06c-0.095,-2.073 -0.143,-4.157 -0.143,-6.242l0,-59.693c0,-10.912 -4.419,-20.799 -11.579,-27.946c-7.147,-7.147 -17.023,-11.579 -27.934,-11.579c-21.835,0 -39.525,17.702 -39.525,39.525l0,61.337c0,1.513 -0.012,3.038 -0.036,4.551c-0.203,14.759 -1.418,29.483 -3.621,44.052c-0.012,0.048 -0.012,0.083 -0.024,0.131c-2.454,16.117 -6.111,32.044 -10.959,47.637c-4.419,14.211 -2.12,29.662 6.242,41.967l8.172,12.02c4.693,6.909 8.303,14.45 10.733,22.336c2.442,7.898 3.693,16.153 3.693,24.516l1.067,0.079l126.803,0l40.903,-134.582l0.107,-0.405l3.371,-12.329l0.012,-0.06c5.35,-26.816 -3.608,-54.751 -24.062,-73.477z"/>
  <g id="svg_12">
   <path id="svg_13" fill="#f4b87f" d="m235.931,321.204l-25.016,0c-2.96,0 -5.361,-2.4 -5.361,-5.361s2.4,-5.361 5.361,-5.361l25.016,0c2.96,0 5.361,2.4 5.361,5.361s-2.401,5.361 -5.361,5.361z"/>
   <path id="svg_14" fill="#f4b87f" d="m235.931,337.881l-25.016,0c-2.96,0 -5.361,-2.4 -5.361,-5.361c0,-2.96 2.4,-5.361 5.361,-5.361l25.016,0c2.96,0 5.361,2.4 5.361,5.361c-0.001,2.961 -2.401,5.361 -5.361,5.361z"/>
  </g>
  <g id="svg_15">
   <rect id="svg_16" fill="#FFFFFF" height="10.721" width="72.665" y="75.512" x="232.957"/>
   <rect id="svg_17" fill="#FFFFFF" height="10.721" width="72.665" y="44.54" x="232.957"/>
   <rect id="svg_18" fill="#FFFFFF" height="10.721" width="72.665" y="158.601" x="232.957"/>
   <rect id="svg_19" fill="#FFFFFF" height="10.721" width="72.665" y="127.629" x="232.957"/>
  </g>
  <path id="svg_20" fill="#f4b87f" d="m247.569,236.344l0,11.277c0,6.177 -2.502,11.767 -6.54,15.82c-4.053,4.038 -9.642,6.54 -15.82,6.54c-12.353,0 -22.359,-10.005 -22.359,-22.359l0,-11.095l44.719,-0.183z"/>
  <polygon id="svg_21" fill="#ff0000" points="179.324,169.284 162.372,138.769 171.743,133.562 178.616,145.932 196.371,108.836   206.041,113.464 "/>
  <g id="svg_22"/>
  <g id="svg_23"/>
  <g id="svg_24"/>
  <g id="svg_25"/>
  <g id="svg_26"/>
  <g id="svg_27"/>
  <g id="svg_28"/>
  <g id="svg_29"/>
  <g id="svg_30"/>
  <g id="svg_31"/>
  <g id="svg_32"/>
  <g id="svg_33"/>
  <g id="svg_34"/>
  <g id="svg_35"/>
  <g id="svg_36"/>
 </g>
</svg>